<svg width="18" height="11" viewBox="0 0 18 11" fill="none" xmlns="http://www.w3.org/2000/svg">
<path d="M17.5625 0.46875H12.5312V1.90625H15.1116L9.65625 7.36156L6.57281 4.27094C6.506 4.20357 6.4265 4.1501 6.33891 4.11361C6.25133 4.07712 6.15738 4.05833 6.0625 4.05833C5.96762 4.05833 5.87367 4.07712 5.78609 4.11361C5.6985 4.1501 5.619 4.20357 5.55219 4.27094L0.3125 9.51781L1.32594 10.5312L6.0625 5.79469L9.14594 8.88531C9.21276 8.95268 9.29225 9.00615 9.37984 9.04264C9.46742 9.07913 9.56137 9.09792 9.65625 9.09792C9.75113 9.09792 9.84508 9.07913 9.93266 9.04264C10.0203 9.00615 10.0997 8.95268 10.1666 8.88531L16.125 2.91969V5.5H17.5625V0.46875Z" fill="#4A90E2"/>
</svg>
