<svg width="17" height="11" viewBox="0 0 17 11" fill="none" xmlns="http://www.w3.org/2000/svg">
<path d="M16.6875 0.90625H12.0938V2.21875H14.4497L9.46875 7.19969L6.65344 4.37781C6.59243 4.3163 6.51985 4.26748 6.43988 4.23417C6.35991 4.20085 6.27413 4.18369 6.1875 4.18369C6.10087 4.18369 6.01509 4.20085 5.93512 4.23417C5.85515 4.26748 5.78257 4.3163 5.72156 4.37781L0.9375 9.16844L1.86281 10.0938L6.1875 5.76906L9.00281 8.59094C9.06382 8.65245 9.1364 8.70127 9.21637 8.73459C9.29634 8.7679 9.38212 8.78506 9.46875 8.78506C9.55538 8.78506 9.64116 8.7679 9.72113 8.73459C9.8011 8.70127 9.87368 8.65245 9.93469 8.59094L15.375 3.14406V5.5H16.6875V0.90625Z" fill="white"/>
</svg>
