<svg width="20" height="21" viewBox="0 0 20 21" fill="none" xmlns="http://www.w3.org/2000/svg">
<path d="M17 2.5H15V1.5C15 1.23478 14.8946 0.98043 14.7071 0.792893C14.5196 0.605357 14.2652 0.5 14 0.5C13.7348 0.5 13.4804 0.605357 13.2929 0.792893C13.1054 0.98043 13 1.23478 13 1.5V2.5H7V1.5C7 1.23478 6.89464 0.98043 6.70711 0.792893C6.51957 0.605357 6.26522 0.5 6 0.5C5.73478 0.5 5.48043 0.605357 5.29289 0.792893C5.10536 0.98043 5 1.23478 5 1.5V2.5H3C2.20435 2.5 1.44129 2.81607 0.87868 3.37868C0.316071 3.94129 0 4.70435 0 5.5V17.5C0 18.2956 0.316071 19.0587 0.87868 19.6213C1.44129 20.1839 2.20435 20.5 3 20.5H17C17.7956 20.5 18.5587 20.1839 19.1213 19.6213C19.6839 19.0587 20 18.2956 20 17.5V5.5C20 4.70435 19.6839 3.94129 19.1213 3.37868C18.5587 2.81607 17.7956 2.5 17 2.5ZM18 17.5C18 17.7652 17.8946 18.0196 17.7071 18.2071C17.5196 18.3946 17.2652 18.5 17 18.5H3C2.73478 18.5 2.48043 18.3946 2.29289 18.2071C2.10536 18.0196 2 17.7652 2 17.5V10.5H18V17.5ZM18 8.5H2V5.5C2 5.23478 2.10536 4.98043 2.29289 4.79289C2.48043 4.60536 2.73478 4.5 3 4.5H5V5.5C5 5.76522 5.10536 6.01957 5.29289 6.20711C5.48043 6.39464 5.73478 6.5 6 6.5C6.26522 6.5 6.51957 6.39464 6.70711 6.20711C6.89464 6.01957 7 5.76522 7 5.5V4.5H13V5.5C13 5.76522 13.1054 6.01957 13.2929 6.20711C13.4804 6.39464 13.7348 6.5 14 6.5C14.2652 6.5 14.5196 6.39464 14.7071 6.20711C14.8946 6.01957 15 5.76522 15 5.5V4.5H17C17.2652 4.5 17.5196 4.60536 17.7071 4.79289C17.8946 4.98043 18 5.23478 18 5.5V8.5Z" fill="white"/>
</svg>
