<svg width="17" height="17" viewBox="0 0 17 17" fill="none" xmlns="http://www.w3.org/2000/svg">
<path d="M15.0625 2.59375H13.75V1.9375C13.7497 1.58951 13.6113 1.25587 13.3652 1.00981C13.1191 0.76374 12.7855 0.625347 12.4375 0.625H4.5625C4.21451 0.625347 3.88087 0.76374 3.63481 1.00981C3.38874 1.25587 3.25035 1.58951 3.25 1.9375V2.59375H1.9375C1.58951 2.5941 1.25587 2.73249 1.00981 2.97856C0.76374 3.22462 0.625347 3.55826 0.625 3.90625V5.875C0.625868 6.57093 0.902709 7.2381 1.3948 7.7302C1.8869 8.22229 2.55407 8.49913 3.25 8.5H3.46131C3.73478 9.50453 4.29482 10.4077 5.07305 11.0992C5.85128 11.7908 6.81404 12.2407 7.84375 12.3942V15.0625H4.5625V16.375H12.4375V15.0625H9.15625V12.3922C10.1993 12.2633 11.1793 11.8229 11.9684 11.1286C12.7574 10.4343 13.3188 9.51822 13.5794 8.5H13.75C14.4459 8.49913 15.1131 8.22229 15.6052 7.7302C16.0973 7.2381 16.3741 6.57093 16.375 5.875V3.90625C16.3747 3.55826 16.2363 3.22462 15.9902 2.97856C15.7441 2.73249 15.4105 2.5941 15.0625 2.59375ZM3.25 7.1875C2.90201 7.18715 2.56837 7.04876 2.32231 6.80269C2.07624 6.55663 1.93785 6.22299 1.9375 5.875V3.90625H3.25V7.1875ZM12.4375 7.1875C12.4375 7.71485 12.3315 8.23682 12.126 8.72244C11.9204 9.20807 11.6193 9.64745 11.2407 10.0145C10.8621 10.3816 10.4136 10.6688 9.92181 10.8593C9.43004 11.0497 8.90503 11.1394 8.37794 11.123C7.33305 11.058 6.35344 10.5927 5.64283 9.8239C4.93221 9.05511 4.54528 8.04199 4.5625 6.99522V1.9375H12.4375V7.1875ZM15.0625 5.875C15.0622 6.22299 14.9238 6.55663 14.6777 6.80269C14.4316 7.04876 14.098 7.18715 13.75 7.1875V3.90625H15.0625V5.875Z" fill="#4A90E2"/>
</svg>
