<svg width="15" height="15" viewBox="0 0 15 15" fill="none" xmlns="http://www.w3.org/2000/svg">
<path d="M1.94604 7.92969H9.38501C9.51033 7.92969 9.61328 7.88717 9.69385 7.80212C9.77441 7.71708 9.8147 7.61414 9.8147 7.49329C9.8147 7.37244 9.77441 7.27173 9.69385 7.19116C9.61328 7.1106 9.51033 7.07031 9.38501 7.07031H1.9729L3.53052 5.5127C3.61108 5.43213 3.65137 5.33142 3.65137 5.21057C3.65137 5.08972 3.61108 4.98901 3.53052 4.90845C3.46785 4.85474 3.40072 4.81669 3.3291 4.79431C3.25749 4.77193 3.18363 4.77193 3.10754 4.79431C3.03145 4.81669 2.96655 4.85474 2.91284 4.90845L0.375 7.51343L2.91284 10.1184C2.9576 10.1542 3.00684 10.1833 3.06055 10.2057C3.11426 10.2281 3.16797 10.2393 3.22168 10.2393C3.33805 10.2393 3.441 10.199 3.53052 10.1184C3.55737 10.0916 3.57975 10.0602 3.59766 10.0244C3.61556 9.98861 3.62899 9.9528 3.63794 9.91699C3.64689 9.88118 3.65137 9.84538 3.65137 9.80957C3.65137 9.77376 3.64689 9.73796 3.63794 9.70215C3.62899 9.66634 3.61556 9.63053 3.59766 9.59473C3.57975 9.55892 3.55737 9.52759 3.53052 9.50073L1.94604 7.92969ZM13.2656 0.625H5.96094C5.71924 0.625 5.51558 0.707804 5.34998 0.873413C5.18437 1.03902 5.10156 1.24268 5.10156 1.48438V5.35156H5.96094V2.00806C5.96094 1.91854 5.98332 1.8335 6.02808 1.75293C6.07284 1.67236 6.1355 1.60746 6.21606 1.55823C6.29663 1.50899 6.38615 1.48438 6.48462 1.48438H12.7285C12.8717 1.48438 12.9926 1.53585 13.0911 1.63879C13.1895 1.74174 13.2388 1.86483 13.2388 2.00806L13.2522 12.9919C13.2522 13.1352 13.203 13.2583 13.1045 13.3612C13.006 13.4642 12.8852 13.5156 12.7419 13.5156H6.48462C6.34139 13.5156 6.2183 13.4642 6.11536 13.3612C6.01241 13.2583 5.96094 13.1352 5.96094 12.9919V9.63501H5.10156V13.5156C5.10156 13.7573 5.18437 13.961 5.34998 14.1266C5.51558 14.2922 5.71924 14.375 5.96094 14.375H13.2656C13.3193 14.375 13.3753 14.3683 13.4335 14.3549C13.4917 14.3414 13.5454 14.3258 13.5946 14.3079C13.6438 14.29 13.6931 14.2653 13.7423 14.234C13.7915 14.2027 13.8341 14.1669 13.8699 14.1266C13.9057 14.0863 13.9392 14.0438 13.9706 13.999C14.0019 13.9543 14.0288 13.905 14.0511 13.8513C14.0735 13.7976 14.0914 13.7439 14.1049 13.6902C14.1183 13.6365 14.125 13.5783 14.125 13.5156V1.48438C14.125 1.13525 13.9683 0.880127 13.655 0.718994C13.5297 0.656331 13.3999 0.625 13.2656 0.625Z" fill="#2366B5"/>
</svg>