<svg width="21" height="21" viewBox="0 0 21 21" fill="none" xmlns="http://www.w3.org/2000/svg">
<path d="M21 10.4895C21 4.69875 16.296 0 10.5 0C4.704 0 0 4.69875 0 10.4895C0 13.6789 1.449 16.5532 3.717 18.4826C3.738 18.5036 3.759 18.5036 3.759 18.5246C3.948 18.6716 4.137 18.8186 4.347 18.9656C4.452 19.0286 4.536 19.1113 4.641 19.1953C6.37621 20.3718 8.42456 21.0005 10.521 21C12.6174 21.0005 14.6658 20.3718 16.401 19.1953C16.506 19.1323 16.59 19.0496 16.695 18.9853C16.884 18.8396 17.094 18.6926 17.283 18.5456C17.304 18.5246 17.325 18.5246 17.325 18.5036C19.551 16.5519 21 13.6789 21 10.4895ZM10.5 19.6783C8.526 19.6783 6.72 19.0483 5.229 17.9996C5.25 17.8316 5.292 17.6649 5.334 17.4969C5.45913 17.0416 5.64265 16.6044 5.88 16.1963C6.111 15.7972 6.384 15.4403 6.72 15.1252C7.035 14.8103 7.413 14.5176 7.791 14.2866C8.19 14.0556 8.61 13.8876 9.072 13.7616C9.53759 13.6361 10.0178 13.573 10.5 13.5739C11.9315 13.5637 13.3104 14.1128 14.343 15.1043C14.826 15.5873 15.204 16.1543 15.477 16.8039C15.624 17.1819 15.729 17.5809 15.792 17.9996C14.2422 19.0892 12.3945 19.6753 10.5 19.6783ZM7.287 9.96581C7.10197 9.54216 7.00892 9.08408 7.014 8.62181C7.014 8.16112 7.098 7.69912 7.287 7.27913C7.476 6.85913 7.728 6.48244 8.043 6.16744C8.358 5.85244 8.736 5.60175 9.156 5.41275C9.576 5.22375 10.038 5.13975 10.5 5.13975C10.983 5.13975 11.424 5.22375 11.844 5.41275C12.264 5.60175 12.642 5.85375 12.957 6.16744C13.272 6.48244 13.524 6.86044 13.713 7.27913C13.902 7.69912 13.986 8.16112 13.986 8.62181C13.986 9.10481 13.902 9.54581 13.713 9.9645C13.5306 10.3783 13.2744 10.7554 12.957 11.0775C12.6348 11.3945 12.2577 11.6502 11.844 11.8322C10.9762 12.1888 10.0028 12.1888 9.135 11.8322C8.72132 11.6502 8.34418 11.3945 8.022 11.0775C7.70413 10.7601 7.45407 10.3815 7.287 9.9645V9.96581ZM17.031 16.9299C17.031 16.8879 17.01 16.8669 17.01 16.8249C16.8035 16.1679 16.499 15.5458 16.107 14.9796C15.7146 14.4091 15.2323 13.906 14.679 13.4899C14.2564 13.172 13.7983 12.9042 13.314 12.6919C13.5343 12.5465 13.7385 12.378 13.923 12.1892C14.2361 11.8801 14.511 11.5346 14.742 11.1602C15.2071 10.3961 15.4473 9.51627 15.435 8.62181C15.4415 7.95968 15.3129 7.30317 15.057 6.69244C14.8044 6.10396 14.4407 5.56967 13.986 5.11875C13.5319 4.67254 12.9975 4.31627 12.411 4.06875C11.7993 3.81333 11.1419 3.68516 10.479 3.69206C9.81602 3.68558 9.15866 3.81419 8.547 4.07006C7.9554 4.31706 7.41971 4.68088 6.972 5.13975C6.5258 5.59333 6.16953 6.1273 5.922 6.71344C5.66613 7.32417 5.53751 7.98068 5.544 8.64281C5.544 9.10481 5.607 9.54581 5.733 9.9645C5.859 10.4055 6.027 10.8045 6.258 11.1812C6.468 11.5592 6.762 11.8952 7.077 12.2102C7.266 12.3992 7.476 12.5659 7.707 12.7129C7.22116 12.9308 6.76294 13.2058 6.342 13.5319C5.796 13.9519 5.313 14.4546 4.914 15.0006C4.51796 15.5645 4.21323 16.1872 4.011 16.8459C3.99 16.8879 3.99 16.9299 3.99 16.9509C2.331 15.2723 1.302 13.0069 1.302 10.4895C1.302 5.43375 5.439 1.30069 10.5 1.30069C15.561 1.30069 19.698 5.43375 19.698 10.4895C19.6953 12.9044 18.7364 15.22 17.031 16.9299Z" fill="white"/>
</svg>
