<svg width="22" height="21" viewBox="0 0 22 21" fill="none" xmlns="http://www.w3.org/2000/svg">
<path d="M21.5 10.4895C21.5 4.69875 16.796 0 11 0C5.204 0 0.5 4.69875 0.5 10.4895C0.5 13.6789 1.949 16.5532 4.217 18.4826C4.238 18.5036 4.259 18.5036 4.259 18.5246C4.448 18.6716 4.637 18.8186 4.847 18.9656C4.952 19.0286 5.036 19.1113 5.141 19.1953C6.87621 20.3718 8.92456 21.0005 11.021 21C13.1174 21.0005 15.1658 20.3718 16.901 19.1953C17.006 19.1323 17.09 19.0496 17.195 18.9853C17.384 18.8396 17.594 18.6926 17.783 18.5456C17.804 18.5246 17.825 18.5246 17.825 18.5036C20.051 16.5519 21.5 13.6789 21.5 10.4895ZM11 19.6783C9.026 19.6783 7.22 19.0483 5.729 17.9996C5.75 17.8316 5.792 17.6649 5.834 17.4969C5.95913 17.0416 6.14265 16.6044 6.38 16.1963C6.611 15.7972 6.884 15.4403 7.22 15.1252C7.535 14.8103 7.913 14.5176 8.291 14.2866C8.69 14.0556 9.11 13.8876 9.572 13.7616C10.0376 13.6361 10.5178 13.573 11 13.5739C12.4315 13.5637 13.8104 14.1128 14.843 15.1043C15.326 15.5873 15.704 16.1543 15.977 16.8039C16.124 17.1819 16.229 17.5809 16.292 17.9996C14.7422 19.0892 12.8945 19.6753 11 19.6783ZM7.787 9.96581C7.60197 9.54216 7.50892 9.08408 7.514 8.62181C7.514 8.16112 7.598 7.69912 7.787 7.27913C7.976 6.85913 8.228 6.48244 8.543 6.16744C8.858 5.85244 9.236 5.60175 9.656 5.41275C10.076 5.22375 10.538 5.13975 11 5.13975C11.483 5.13975 11.924 5.22375 12.344 5.41275C12.764 5.60175 13.142 5.85375 13.457 6.16744C13.772 6.48244 14.024 6.86044 14.213 7.27913C14.402 7.69912 14.486 8.16112 14.486 8.62181C14.486 9.10481 14.402 9.54581 14.213 9.9645C14.0306 10.3783 13.7744 10.7554 13.457 11.0775C13.1348 11.3945 12.7577 11.6502 12.344 11.8322C11.4762 12.1888 10.5028 12.1888 9.635 11.8322C9.22132 11.6502 8.84418 11.3945 8.522 11.0775C8.20413 10.7601 7.95407 10.3815 7.787 9.9645V9.96581ZM17.531 16.9299C17.531 16.8879 17.51 16.8669 17.51 16.8249C17.3035 16.1679 16.999 15.5458 16.607 14.9796C16.2146 14.4091 15.7323 13.906 15.179 13.4899C14.7564 13.172 14.2983 12.9042 13.814 12.6919C14.0343 12.5465 14.2385 12.378 14.423 12.1892C14.7361 11.8801 15.011 11.5346 15.242 11.1602C15.7071 10.3961 15.9473 9.51627 15.935 8.62181C15.9415 7.95968 15.8129 7.30317 15.557 6.69244C15.3044 6.10396 14.9407 5.56967 14.486 5.11875C14.0319 4.67254 13.4975 4.31627 12.911 4.06875C12.2993 3.81333 11.6419 3.68516 10.979 3.69206C10.316 3.68558 9.65866 3.81419 9.047 4.07006C8.4554 4.31706 7.91971 4.68088 7.472 5.13975C7.0258 5.59333 6.66953 6.1273 6.422 6.71344C6.16613 7.32417 6.03751 7.98068 6.044 8.64281C6.044 9.10481 6.107 9.54581 6.233 9.9645C6.359 10.4055 6.527 10.8045 6.758 11.1812C6.968 11.5592 7.262 11.8952 7.577 12.2102C7.766 12.3992 7.976 12.5659 8.207 12.7129C7.72116 12.9308 7.26294 13.2058 6.842 13.5319C6.296 13.9519 5.813 14.4546 5.414 15.0006C5.01796 15.5645 4.71323 16.1872 4.511 16.8459C4.49 16.8879 4.49 16.9299 4.49 16.9509C2.831 15.2723 1.802 13.0069 1.802 10.4895C1.802 5.43375 5.939 1.30069 11 1.30069C16.061 1.30069 20.198 5.43375 20.198 10.4895C20.1953 12.9044 19.2364 15.22 17.531 16.9299Z" fill="#4A90E2"/>
</svg>
