<svg width="36" height="36" viewBox="0 0 36 36" fill="none" xmlns="http://www.w3.org/2000/svg">
<path d="M18.2422 0.671875C8.57812 0.671875 0.742188 8.50781 0.742188 18.1719C0.742188 27.8359 8.57812 35.6719 18.2422 35.6719C27.9062 35.6719 35.7422 27.8359 35.7422 18.1719C35.7422 8.50781 27.9062 0.671875 18.2422 0.671875ZM23.8711 18.4414L15.3398 24.6484C15.2931 24.682 15.2379 24.7021 15.1805 24.7064C15.1231 24.7107 15.0656 24.6991 15.0143 24.6729C14.963 24.6467 14.92 24.6068 14.8899 24.5577C14.8598 24.5086 14.8438 24.4521 14.8438 24.3945V11.9883C14.8436 11.9306 14.8594 11.8739 14.8894 11.8247C14.9194 11.7754 14.9625 11.7354 15.0139 11.7091C15.0652 11.6828 15.1229 11.6712 15.1804 11.6757C15.238 11.6802 15.2931 11.7005 15.3398 11.7344L23.8711 17.9375C23.9114 17.966 23.9443 18.0038 23.967 18.0476C23.9897 18.0914 24.0015 18.1401 24.0015 18.1895C24.0015 18.2388 23.9897 18.2875 23.967 18.3313C23.9443 18.3751 23.9114 18.4129 23.8711 18.4414Z" fill="#383838"/>
</svg>
