<svg width="20" height="25" viewBox="0 0 20 25" fill="none" xmlns="http://www.w3.org/2000/svg">
<mask id="mask0" mask-type="alpha" maskUnits="userSpaceOnUse" x="0" y="0" width="20" height="25">
<ellipse cx="10" cy="12.5" rx="10" ry="12.5" fill="#C4C4C4"/>
</mask>
<g mask="url(#mask0)">
<rect x="5" y="-2" width="2" height="17" fill="#8D8C89"/>
<rect x="9" y="-2" width="2" height="17" fill="#8D8C89"/>
<rect x="13" y="-2" width="2" height="17" fill="#8D8C89"/>
<circle cx="10" cy="16" r="9" fill="#CBCBCA"/>
<circle cx="10" cy="16" r="6" fill="#8D8C89"/>
<path d="M9.935 18.046H12.347V19H8.378L8.36 18.307L10.349 16.21C10.643 15.904 10.862 15.637 11.006 15.409C11.15 15.175 11.222 14.935 11.222 14.689C11.222 14.413 11.132 14.185 10.952 14.005C10.778 13.819 10.553 13.726 10.277 13.726C9.767 13.726 9.374 13.969 9.098 14.455L8.351 13.924C8.765 13.144 9.431 12.754 10.349 12.754C10.883 12.754 11.339 12.922 11.717 13.258C12.095 13.588 12.284 14.026 12.284 14.572C12.284 14.926 12.206 15.265 12.05 15.589C11.9 15.913 11.636 16.27 11.258 16.66L9.935 18.037V18.046Z" fill="white"/>
</g>
</svg>
