<svg width="20" height="25" viewBox="0 0 20 25" fill="none" xmlns="http://www.w3.org/2000/svg">
<mask id="mask0" mask-type="alpha" maskUnits="userSpaceOnUse" x="0" y="0" width="20" height="25">
<ellipse cx="10" cy="12.5" rx="10" ry="12.5" fill="#C4C4C4"/>
</mask>
<g mask="url(#mask0)">
<rect x="5" y="-2" width="2" height="17" fill="#CD6532"/>
<rect x="9" y="-1" width="2" height="17" fill="#CD6532"/>
<rect x="13" y="-1" width="2" height="17" fill="#CD6532"/>
<circle cx="10" cy="16" r="9" fill="#D3835C"/>
<circle cx="10" cy="16" r="6" fill="#CD6532"/>
<path d="M11.483 15.796C11.795 15.934 12.038 16.135 12.212 16.399C12.392 16.663 12.482 16.972 12.482 17.326C12.482 17.848 12.287 18.271 11.897 18.595C11.513 18.913 11.024 19.072 10.43 19.072C9.908 19.072 9.452 18.952 9.062 18.712C8.678 18.466 8.408 18.148 8.252 17.758L9.152 17.362C9.356 17.854 9.758 18.1 10.358 18.1C10.658 18.1 10.91 18.016 11.114 17.848C11.318 17.674 11.42 17.452 11.42 17.182C11.42 16.924 11.318 16.705 11.114 16.525C10.91 16.345 10.625 16.255 10.259 16.255H9.791V15.373H10.358C10.664 15.373 10.889 15.295 11.033 15.139C11.183 14.983 11.258 14.788 11.258 14.554C11.258 14.308 11.168 14.107 10.988 13.951C10.808 13.795 10.589 13.717 10.331 13.717C9.881 13.717 9.542 13.897 9.314 14.257L8.477 13.807C8.633 13.489 8.876 13.234 9.206 13.042C9.536 12.85 9.92 12.754 10.358 12.754C10.916 12.754 11.381 12.901 11.753 13.195C12.125 13.489 12.311 13.888 12.311 14.392C12.311 14.692 12.236 14.965 12.086 15.211C11.942 15.451 11.741 15.643 11.483 15.787V15.796Z" fill="white"/>
</g>
</svg>
