<svg width="371" height="83" fill="none" xmlns="http://www.w3.org/2000/svg"><path d="M368.12 18.2a2 2 0 00-1.6-3.2H2.4a2 2 0 00-1.97 2.36L12.2 81.35a2 2 0 001.98 1.63l306.83-2.97a2 2 0 001.58-.8l45.53-61.01z" fill="url(#paint0_linear)" fill-opacity=".2"/><path d="M0 17c0-1.1.9-2 2-2h366.1a2 2 0 011.97 2.36L358.3 81.31a2 2 0 01-2.02 1.64L1.94 72.55a2 2 0 01-1.94-2V17z" fill="url(#paint1_linear)"/><path d="M276 76l18-4-14-2.5-19 2 15 4.5z" fill="url(#paint2_linear)" fill-opacity=".7"/><path d="M0 17c0-1.1.9-2 2-2h366.1a2 2 0 011.97 2.36L358.3 81.31a2 2 0 01-2.02 1.64L1.94 72.55a2 2 0 01-1.94-2V17z" fill="url(#paint3_linear)" fill-opacity=".15"/><path d="M230 62.5l17.5-1-17.5-8-20.5 2 20.5 7z" fill="url(#paint4_linear)" fill-opacity=".7"/><path d="M248 70l17-2.5-16.5-4.5-16.5 1 16 6z" fill="url(#paint5_linear)" fill-opacity=".7"/><path d="M254.16 59.27l7.39-5.36-24.9-6.9-9.65 4.52 27.16 7.74z" fill="url(#paint6_linear)"/><path d="M227 55.34v-3.8l27.16 7.73v4.41L227 55.34z" fill="url(#paint7_linear)"/><path d="M261.55 57.96v-4.05l-7.39 5.36v4.41l7.39-5.72z" fill="url(#paint8_linear)"/><path d="M237.11 58.5v-3.98l6.11 1.53v4.28l-6.1-1.83z" fill="#fff"/><path d="M238.33 53.91l-1.22.61 6.11 1.53-4.89-2.14z" fill="#C4C4C4"/><g filter="url(#filter0_f)"><path d="M251.77 60.94l.61-2.14-9.16-2.75v2.14l3.67.92 4.88 1.83z" fill="#000"/></g><path d="M238.26 42l21.5 8.58-10.72 4.4-21.32-9.76L238.25 42z" fill="url(#paint9_linear)"/><path d="M259.76 54.45v-3.87l-10.72 4.4v4.3l10.72-4.83z" fill="url(#paint10_linear)"/><path d="M249.04 54.99v4.28l-21.32-10.36v-3.7L249.03 55z" fill="url(#paint11_linear)"/><ellipse rx="4.28" ry="1.22" transform="matrix(-1 0 0 1 238.33 45.67)" fill="#000" fill-opacity=".1"/><path d="M236.2 49.09l5.19 2.44v3.97l-5.2-2.44v-3.97z" fill="#DDD"/><path d="M241.39 51.53l12.22-3.42-6.11-2.44-11.3 3.42 5.19 2.44z" fill="#fff"/><circle cx="242" cy="25" r="1" fill="#fff" fill-opacity=".2"/><circle cx="291" cy="32" r="1" fill="#fff"/><circle cx="323" cy="50" r="1" fill="#fff" fill-opacity=".3"/><circle cx="264.5" cy="47.5" r=".5" fill="#fff" fill-opacity=".2"/><circle cx="258.5" cy="55.5" r=".5" fill="#fff"/><circle cx="185.5" cy="47.5" r=".5" fill="#fff" fill-opacity=".5"/><circle cx="248.5" cy="72.5" r=".5" fill="#fff" fill-opacity=".2"/><circle cx="209.5" cy="52.5" r=".5" fill="#fff" fill-opacity=".7"/><g filter="url(#filter1_f)"><path d="M320 44l3 1h-35l2.5-1H320z" fill="#000"/></g><circle cx="207.5" cy="73.5" r=".5" fill="#fff" fill-opacity=".3"/><circle cx="188.5" cy="68.5" r=".5" fill="#fff" fill-opacity=".1"/><circle cx="210.5" cy="71.5" r=".5" fill="#fff" fill-opacity=".2"/><circle cx="218.5" cy="75.5" r=".5" fill="#fff" fill-opacity=".4"/><circle cx="191.5" cy="31.5" r=".5" fill="#fff" fill-opacity=".4"/><circle cx="156.5" cy="36.5" r=".5" fill="#fff" fill-opacity=".6"/><circle cx="185.5" cy="17.5" r=".5" fill="#fff" fill-opacity=".2"/><circle cx="225.5" cy="35.5" r=".5" fill="#fff" fill-opacity=".4"/><circle cx="295.5" cy="41.5" r=".5" fill="#fff" fill-opacity=".1"/><circle cx="350.5" cy="18.5" r=".5" fill="#fff" fill-opacity=".1"/><circle cx="332.5" cy="19.5" r=".5" fill="#fff" fill-opacity=".1"/><circle cx="361" cy="44" r="1" fill="#fff" fill-opacity=".2"/><circle cx="365.5" cy="29.5" r=".5" fill="#fff" fill-opacity=".2"/><circle cx="346.5" cy="71.5" r=".5" fill="#fff" fill-opacity=".2"/><circle cx="355.5" cy="79.5" r=".5" fill="#fff" fill-opacity=".1"/><circle cx="319.5" cy="76.5" r=".5" fill="#fff" fill-opacity=".2"/><circle cx="280.5" cy="49.5" r=".5" fill="#fff" fill-opacity=".3"/><circle cx="343.5" cy="43.5" r=".5" fill="#fff" fill-opacity=".2"/><circle cx="301.5" cy="59.5" r=".5" fill="#fff" fill-opacity=".6"/><circle cx="326.5" cy="30.5" r=".5" fill="#fff" fill-opacity=".2"/><circle cx="354.5" cy="60.5" r=".5" fill="#fff"/><circle cx="304.5" cy="21.5" r="21.5" fill="url(#paint12_linear)"/><path d="M304.98 1.91v2.87M304.23 38.02l-.02 2.48M323.8 21.83l-2.49-.05M287.78 21.02h-2.87M294.85 4.79l1.24 2.15M312.9 36.06l1.25 2.15M287.79 11.85l2.15 1.24M319.06 29.9l2.15 1.25M287.54 30.7l2.18-1.19M319.28 13.49l2.18-1.18" stroke="#162F56" stroke-opacity=".2" stroke-linecap="round"/><path d="M304.98 21.02V8.6c4.3-.48 9.55 2.87 10.5 6.69l-10.5 5.73z" fill="url(#paint13_linear)"/><path d="M294.85 38.21l1.24-2.15M312.9 6.94l1.25-2.15" stroke="#162F56" stroke-opacity=".2" stroke-linecap="round"/><path d="M294.47 21.02h10.5" stroke="#162F56" stroke-width="2" stroke-linecap="round"/><path d="M315.49 15.29l-10.51 5.73" stroke="#162F56" stroke-width=".5" stroke-linecap="round"/><path d="M304.98 21.98V6.68" stroke="#162F56" stroke-linecap="round"/><circle cx="304.98" cy="21.02" r="1.41" fill="#fff" stroke="#162F56"/><path d="M352.5 21.4l-3.93 2.43-2.78 6.58 2.78-1.01-1.74 5.36 5.96-8.99-2.57 1.17 2.28-5.54z" fill="#fff" fill-opacity=".5"/><path d="M300.5 80.5l55-17.5-56.5 4-16 1.5 17.5 12z" fill="url(#paint14_linear)" fill-opacity=".5"/><path d="M311.09 69.28L299 60.5l40.75-11.3 15.8 7.4-44.46 12.68z" fill="url(#paint15_linear)"/><path d="M355.55 62.84V56.6l-44.46 12.68v7.21l44.46-13.65z" fill="url(#paint16_linear)"/><path d="M299 67.13V60.5l12.09 8.78v7.21L299 67.13z" fill="url(#paint17_linear)"/><path d="M339 68v-6.5L329 64v7l10-3z" fill="#fff"/><path d="M337 60.5l2 1-10 2.5 8-3.5z" fill="#C4C4C4"/><g filter="url(#filter2_f)"><path d="M315 72l-1-3.5 15-4.5v3.5l-6 1.5-8 3z" fill="#000"/></g><path d="M337.12 41l-35.2 14.04 17.56 7.22 34.9-16L337.12 41z" fill="url(#paint18_linear)"/><path d="M301.93 61.38v-6.34l17.55 7.22v7.02l-17.56-7.9z" fill="url(#paint19_linear)"/><path d="M319.48 62.26v7.02l34.9-16.97v-6.04l-34.9 15.99z" fill="url(#paint20_linear)"/><ellipse cx="337" cy="47" rx="7" ry="2" fill="#000" fill-opacity=".1"/><path d="M340.5 52.6l-8.5 4v6.5l8.5-4v-6.5z" fill="#DDD"/><path d="M332 56.6L312 51l10-4 18.5 5.6-8.5 4z" fill="#fff"/><g filter="url(#filter3_f)"><ellipse cx="329.5" cy="50.5" rx="4.5" ry=".5" fill="#000" fill-opacity=".5"/></g><path d="M338.85 22.5l-6.54 3.44-5.14 15.68 5.54-2.94-3.9 11.69 11.72-20.56-5.07 3.23 3.4-10.54z" fill="#fff"/><path d="M265 66l15.5-3-13.5-3-15 2.5 13 3.5z" fill="url(#paint21_linear)" fill-opacity=".7"/><path d="M246 63.96v2.23c0 .93 3.18 1.69 7.1 1.69 3.92 0 7.1-.76 7.1-1.7v-2.22H246z" fill="url(#paint22_linear)"/><ellipse cx="253.1" cy="63.71" rx="7.1" ry="1.71" fill="#FEE71B"/><ellipse cx="253.1" cy="63.71" rx="6.12" ry="1.22" fill="#FFCC17"/><path d="M246 59.96v2.23c0 .93 3.18 1.69 7.1 1.69 3.92 0 7.1-.76 7.1-1.7v-2.22H246z" fill="url(#paint23_linear)"/><ellipse cx="253.1" cy="59.71" rx="7.1" ry="1.71" fill="#FEE71B"/><ellipse cx="253.1" cy="59.71" rx="6.12" ry="1.22" fill="#FFCC17"/><path d="M246 55.96v2.23c0 .93 3.18 1.69 7.1 1.69 3.92 0 7.1-.76 7.1-1.7v-2.22H246z" fill="url(#paint24_linear)"/><ellipse cx="253.1" cy="55.71" rx="7.1" ry="1.71" fill="#FEE71B"/><ellipse cx="253.1" cy="55.71" rx="6.12" ry="1.22" fill="#FFCC17"/><path opacity=".3" d="M251.05 13v13.5l14 2.5V13h-14z" fill="url(#paint25_linear)"/><path d="M251.4 24.38l-.8 2.13c-.33.9 2.45 2.76 6.2 4.16 3.77 1.4 7.09 1.82 7.42.92l.8-2.13-13.62-5.08z" fill="url(#paint26_linear)"/><ellipse cx="258.3" cy="26.68" rx="7.27" ry="1.75" transform="rotate(20.45 258.3 26.68)" fill="#FEE71B"/><ellipse cx="258.3" cy="26.68" rx="6.26" ry="1.25" transform="rotate(20.45 258.3 26.68)" fill="#FFCC17"/><path opacity=".3" d="M245 26l.5 19.5 14-3.5V26H245z" fill="url(#paint27_linear)"/><path d="M245.5 45.47l.55 2.15c.24.9 3.5.84 7.3-.15 3.8-.98 6.69-2.51 6.45-3.42l-.56-2.15-13.75 3.57z" fill="url(#paint28_linear)"/><ellipse cx="252.31" cy="43.44" rx="7.1" ry="1.71" transform="rotate(-14.56 252.3 43.44)" fill="#FEE71B"/><ellipse cx="252.31" cy="43.44" rx="6.12" ry="1.22" transform="rotate(-14.56 252.3 43.44)" fill="#FFCC17"/><path opacity=".3" d="M283 36v13.5l12.5 7.5V36H283z" fill="url(#paint29_linear)"/><path d="M283.11 49.65l-1.2 1.88c-.5.78 1.77 3.13 5.07 5.25 3.31 2.1 6.4 3.18 6.9 2.4l1.2-1.88-11.97-7.65z" fill="url(#paint30_linear)"/><ellipse cx="289.23" cy="53.27" rx="7.1" ry="1.71" transform="rotate(32.57 289.23 53.27)" fill="#FEE71B"/><ellipse cx="289.23" cy="53.27" rx="6.12" ry="1.22" transform="rotate(32.57 289.23 53.27)" fill="#FFCC17"/><path d="M280 68.96v2.23c0 .93 3.18 1.69 7.1 1.69 3.92 0 7.1-.76 7.1-1.7v-2.22H280z" fill="url(#paint31_linear)"/><ellipse cx="287.1" cy="68.71" rx="7.1" ry="1.71" fill="#FEE71B"/><ellipse cx="287.1" cy="68.71" rx="6.12" ry="1.22" fill="#FFCC17"/><path d="M280 64.96v2.23c0 .93 3.18 1.69 7.1 1.69 3.92 0 7.1-.76 7.1-1.7v-2.22H280z" fill="url(#paint32_linear)"/><ellipse cx="287.1" cy="64.71" rx="7.1" ry="1.71" fill="#FEE71B"/><ellipse cx="287.1" cy="64.71" rx="6.12" ry="1.22" fill="#FFCC17"/><path d="M267 59.96v2.23c0 .93 3.18 1.69 7.1 1.69 3.92 0 7.1-.76 7.1-1.7v-2.22H267z" fill="url(#paint33_linear)"/><ellipse cx="274.1" cy="59.71" rx="7.1" ry="1.71" fill="#FEE71B"/><ellipse cx="274.1" cy="59.71" rx="6.12" ry="1.22" fill="#FFCC17"/><path d="M261 54l-2.14.58c-.9.25-.8 3.52.24 7.3s2.61 6.65 3.51 6.4l2.15-.59-3.75-13.7z" fill="url(#paint34_linear)"/><ellipse cx="263.12" cy="60.78" rx="7.1" ry="1.71" transform="rotate(74.68 263.12 60.78)" fill="#FEE71B"/><ellipse cx="263.12" cy="60.78" rx="6.12" ry="1.22" transform="rotate(74.68 263.12 60.78)" fill="#FFCC17"/><rect x="14" y="8" width="91" height="15" rx="2" fill="url(#paint35_linear)"/><path d="M27.2 12.6V19h-1.05l-3.2-4.09V19h-1.31v-6.4h1.03l3.2 4.07v-4.08h1.32zm4.22 6.48c-.64 0-1.2-.13-1.67-.4a2.77 2.77 0 01-1.08-1.15 3.82 3.82 0 01-.38-1.74c0-.67.12-1.25.38-1.74.25-.5.62-.87 1.08-1.13a3.3 3.3 0 011.67-.4c.64 0 1.19.13 1.66.4.46.26.82.64 1.08 1.13.25.5.37 1.07.37 1.74 0 .66-.12 1.25-.37 1.74-.26.5-.62.88-1.08 1.15-.47.27-1.02.4-1.66.4zm0-1.1c.54 0 .96-.19 1.26-.56.3-.38.46-.93.46-1.63 0-.71-.15-1.25-.46-1.62-.3-.38-.72-.56-1.26-.56s-.96.19-1.27.56c-.3.37-.45.9-.45 1.62 0 .71.15 1.26.45 1.64.3.37.73.55 1.27.55zm13.36-5.39L42.5 19h-1.12l-1.5-4.24-1.5 4.24h-1.12l-2.28-6.4h1.43l1.48 4.42 1.54-4.43h.98l1.52 4.5 1.5-4.5h1.35zm7.62 4.99h-3L48.8 19h-1.42l2.95-6.4h1.13L54.4 19h-1.38l-.62-1.42zm-.45-1.07l-1.04-2.4-1.03 2.4h2.07zm8.48-3.92L57.55 19h-1.13l-2.88-6.4H55l2 4.65L59 12.59h1.42zm4.16 4.99h-3L60.98 19h-1.42l2.95-6.4h1.13l2.94 6.4H65.2l-.61-1.42zm-.46-1.07l-1.04-2.4-1.03 2.4h2.07zm3-3.92h1.4V19h-1.4v-6.4zm2.7 0h1.4v5.27h2.86V19h-4.27v-6.4zm9.39 4.99h-3l-.6 1.42H74.2l2.94-6.4h1.13l2.95 6.4h-1.39l-.61-1.42zm-.46-1.07l-1.03-2.4-1.04 2.4h2.07zm7.12-.82c.37.1.66.3.86.56.2.27.3.6.3 1 0 .54-.2.96-.6 1.28-.4.31-.94.47-1.63.47h-3.05v-6.4h2.96c.66 0 1.19.14 1.57.44.4.3.59.7.59 1.22a1.48 1.48 0 01-1 1.43zm-2.75-.49h1.35c.36 0 .63-.06.8-.18.18-.12.27-.32.27-.57 0-.27-.09-.46-.27-.59-.17-.13-.44-.19-.8-.19h-1.35v1.53zm1.52 2.72c.37 0 .65-.06.81-.19.18-.13.27-.34.27-.62 0-.29-.1-.5-.27-.63-.16-.13-.44-.2-.81-.2h-1.52v1.64h1.52zm3.38-5.33h1.4v5.27h2.87V19h-4.27v-6.4zm5.13 0h4.41v1.1h-3.05v1.5h2.87v1.1h-2.87v1.62h3.05V19h-4.41v-6.4z" fill="#FBFCFD"/><path d="M14.78 38.17h1.72V46h-1.72v-7.83zm6.62 2.11c1.32 0 1.98.78 1.98 2.34V46h-1.66v-3.3c0-.39-.07-.67-.22-.85-.14-.18-.36-.27-.67-.27-.37 0-.66.12-.88.35-.22.23-.33.55-.33.95V46h-1.66v-3.98c0-.6-.03-1.13-.09-1.6h1.56l.11.88a2.06 2.06 0 011.86-1.02zm5.44 5.8a4.09 4.09 0 01-2.5-.67l.44-1.16a3.51 3.51 0 002.08.66c.29 0 .5-.04.66-.13a.42.42 0 00.23-.39.39.39 0 00-.16-.33 1.6 1.6 0 00-.59-.2l-.91-.21c-.54-.12-.93-.3-1.19-.56a1.4 1.4 0 01-.37-1.03c0-.34.1-.65.3-.92.2-.27.48-.48.84-.63a3.73 3.73 0 013.43.46l-.46 1.11c-.28-.2-.58-.34-.88-.45-.3-.1-.58-.15-.86-.15-.27 0-.48.05-.63.14a.44.44 0 00-.23.4c0 .12.04.23.13.3.1.08.26.14.5.2l.93.2c.57.13.98.33 1.24.6.26.26.39.61.39 1.05 0 .53-.22.95-.64 1.26-.43.3-1.01.46-1.75.46zm5.43-4.41v2.16c0 .31.08.54.24.69.17.13.38.2.63.2.16 0 .35-.02.55-.07v1.28c-.26.1-.58.16-.96.16-.68 0-1.21-.2-1.58-.59a2.32 2.32 0 01-.54-1.63v-2.2h-1.05v-1.25h1.05v-1.3l1.66-.54v1.84h1.42v1.25h-1.42zm7.86-1.25V46H38.5v-.83c-.17.3-.4.51-.71.68-.31.16-.66.24-1.05.24-.48 0-.91-.12-1.28-.35a2.43 2.43 0 01-.87-1c-.2-.45-.31-.95-.31-1.52 0-.57.1-1.08.3-1.53.22-.45.51-.8.89-1.04.37-.25.8-.37 1.27-.37.4 0 .74.08 1.05.25.3.17.54.4.71.69v-.8h1.64zm-2.91 4.4c.4 0 .72-.14.94-.41.22-.28.33-.69.33-1.21 0-.53-.1-.94-.33-1.22a1.12 1.12 0 00-.94-.42c-.41 0-.73.14-.96.44-.23.29-.34.7-.34 1.22s.1.92.33 1.2c.23.27.55.4.97.4zm7.7-4.54c1.32 0 1.98.78 1.98 2.34V46h-1.67v-3.3c0-.39-.07-.67-.22-.85-.13-.18-.36-.27-.67-.27-.36 0-.66.12-.88.35-.22.23-.33.55-.33.95V46h-1.66v-3.98c0-.6-.03-1.13-.09-1.6h1.57l.1.88a2.06 2.06 0 011.87-1.02zm5.39 1.39v2.16c0 .31.08.54.24.69.16.13.37.2.63.2.16 0 .34-.02.55-.07v1.28c-.27.1-.59.16-.96.16-.69 0-1.22-.2-1.58-.59a2.32 2.32 0 01-.54-1.63v-2.2h-1.06v-1.25h1.06v-1.3l1.66-.54v1.84h1.42v1.25H50.3zm8.21 4.43c-.6 0-1.16-.08-1.71-.23-.55-.16-1-.39-1.36-.67l.55-1.23c.76.52 1.6.79 2.53.79.5 0 .88-.08 1.15-.23.27-.17.4-.39.4-.68 0-.24-.12-.44-.37-.58a4.56 4.56 0 00-1.29-.42 7.15 7.15 0 01-1.65-.5c-.4-.2-.7-.45-.89-.74-.18-.3-.27-.66-.27-1.09 0-.47.13-.89.38-1.26.27-.38.63-.67 1.1-.87a3.9 3.9 0 011.63-.32c.56 0 1.1.08 1.6.24.52.16.93.38 1.24.66L61 40.2a3.66 3.66 0 00-2.28-.79c-.44 0-.79.09-1.05.27a.82.82 0 00-.4.71c0 .18.05.32.14.44.1.12.27.22.5.32.24.09.58.18 1.01.26 1 .22 1.73.5 2.17.86.44.35.67.83.67 1.44 0 .74-.29 1.32-.86 1.75-.57.43-1.37.64-2.39.64zm9.39-2.75h-3.68c.03.52.17.9.41 1.14.24.24.6.35 1.08.35a2.7 2.7 0 001.65-.56l.44 1.13a3 3 0 01-1 .5c-.38.12-.77.18-1.17.18-.94 0-1.67-.26-2.2-.77a2.82 2.82 0 01-.81-2.13c0-.56.11-1.06.34-1.5.23-.45.56-.8.98-1.04.42-.25.89-.37 1.42-.37.78 0 1.4.26 1.86.77.45.5.68 1.2.68 2.06v.24zm-2.5-1.9c-.31 0-.57.09-.77.27-.19.18-.31.45-.37.8h2.2c-.08-.71-.44-1.07-1.06-1.07zm5.52.22v2.16c0 .31.08.54.25.69.16.13.37.2.62.2.16 0 .35-.02.55-.07v1.28c-.26.1-.58.16-.95.16-.7 0-1.22-.2-1.59-.59a2.32 2.32 0 01-.54-1.63v-2.2h-1.05v-1.25h1.05v-1.3l1.66-.54v1.84h1.42v1.25h-1.42zm4.21 0v2.16c0 .31.09.54.25.69.16.13.37.2.62.2.17 0 .35-.02.55-.07v1.28c-.26.1-.58.16-.95.16-.7 0-1.22-.2-1.59-.59a2.32 2.32 0 01-.54-1.63v-2.2h-1.05v-1.25h1.05v-1.3l1.66-.54v1.84h1.42v1.25h-1.42zm2.28-3.77h1.66V46h-1.66v-8.1zm8.02 5.45h-3.67c.03.52.16.9.4 1.14.24.24.6.35 1.08.35a2.7 2.7 0 001.65-.56l.44 1.13a3 3 0 01-.99.5c-.39.12-.78.18-1.18.18-.94 0-1.67-.26-2.2-.77a2.82 2.82 0 01-.81-2.13c0-.56.11-1.06.34-1.5.24-.45.56-.8.98-1.04.42-.25.9-.37 1.42-.37.78 0 1.4.26 1.86.77.45.5.68 1.2.68 2.06v.24zm-2.5-1.9c-.31 0-.57.09-.77.27-.19.18-.31.45-.37.8H84c-.09-.71-.44-1.07-1.07-1.07zm10.36-1.17c.64 0 1.11.2 1.42.58.32.38.47.97.47 1.76V46h-1.66v-3.32c0-.4-.06-.67-.18-.84-.13-.17-.33-.26-.62-.26-.34 0-.6.12-.78.35-.18.23-.28.56-.28.99V46h-1.66v-3.32c0-.38-.06-.66-.2-.84-.12-.17-.32-.26-.6-.26-.34 0-.6.12-.8.35-.17.23-.27.56-.27.99V46h-1.66v-3.98c0-.6-.03-1.13-.09-1.6h1.57l.1.84c.16-.32.4-.56.7-.73.3-.17.66-.25 1.06-.25.82 0 1.37.34 1.65 1.03a2.12 2.12 0 011.84-1.03zm8.21 3.07h-3.67c.03.52.16.9.4 1.14.25.24.6.35 1.08.35a2.7 2.7 0 001.65-.56l.44 1.13a3 3 0 01-.99.5c-.39.12-.78.18-1.18.18-.93 0-1.67-.26-2.2-.77a2.82 2.82 0 01-.81-2.13c0-.56.11-1.06.34-1.5.24-.45.56-.8.98-1.04.42-.25.9-.37 1.42-.37.78 0 1.4.26 1.86.77.45.5.68 1.2.68 2.06v.24zm-2.5-1.9c-.31 0-.57.09-.77.27-.19.18-.31.45-.37.8h2.21c-.09-.71-.44-1.07-1.07-1.07zm6.99-1.17c1.32 0 1.98.78 1.98 2.34V46h-1.67v-3.3c0-.39-.07-.67-.22-.85-.13-.18-.36-.27-.67-.27-.36 0-.66.12-.88.35-.22.23-.33.55-.33.95V46h-1.66v-3.98c0-.6-.03-1.13-.08-1.6h1.56l.1.88a2.07 2.07 0 011.87-1.02zm5.39 1.39v2.16c0 .31.08.54.24.69.16.13.37.2.63.2.16 0 .34-.02.55-.07v1.28c-.27.1-.59.16-.96.16-.69 0-1.22-.2-1.58-.59a2.33 2.33 0 01-.54-1.63v-2.2h-1.06v-1.25h1.06v-1.3l1.66-.54v1.84h1.42v1.25h-1.42zm4.4 4.42a4.09 4.09 0 01-2.5-.68l.45-1.16a3.53 3.53 0 002.08.66c.28 0 .5-.04.66-.13a.42.42 0 00.23-.39.39.39 0 00-.17-.33 1.6 1.6 0 00-.58-.2l-.91-.21c-.54-.12-.94-.3-1.2-.56a1.4 1.4 0 01-.37-1.03c0-.34.1-.65.3-.92.2-.27.49-.48.85-.63a3.73 3.73 0 013.43.46l-.46 1.11c-.29-.2-.58-.34-.88-.45-.3-.1-.58-.15-.86-.15-.27 0-.48.05-.64.14a.44.44 0 00-.23.4c0 .12.05.23.13.3.1.08.26.14.5.2l.93.2c.58.13.99.33 1.25.6.25.26.38.61.38 1.05 0 .53-.21.95-.64 1.26-.42.3-1 .46-1.75.46z" fill="#fff"/><path opacity=".5" d="M14.83 53.88h2.49c1.15 0 2.05.31 2.68.93.63.62.95 1.5.95 2.62 0 1.13-.32 2.01-.95 2.64-.63.62-1.53.93-2.68.93h-2.49v-7.12zm2.43 6.26c1.75 0 2.63-.9 2.63-2.71 0-1.8-.88-2.69-2.63-2.69h-1.4v5.4h1.4zm7.18.93c-.5 0-.93-.1-1.3-.32a2.2 2.2 0 01-.87-.91 3 3 0 01-.3-1.38 3 3 0 01.3-1.38c.2-.4.5-.7.87-.92.37-.21.8-.32 1.3-.32.49 0 .92.1 1.29.32.37.21.66.52.86.92.2.4.3.85.3 1.38 0 .53-.1.99-.3 1.38-.2.4-.49.7-.86.91-.37.21-.8.32-1.3.32zm-.01-.8c.47 0 .82-.15 1.07-.46.25-.3.37-.76.37-1.35 0-.58-.13-1.03-.38-1.34-.25-.31-.6-.47-1.05-.47-.46 0-.82.16-1.07.47-.25.31-.38.76-.38 1.34 0 .6.12 1.04.37 1.35.25.3.6.46 1.07.46zm6.33-4.43c1.2 0 1.81.67 1.81 2.02V61h-1.01v-3.08c0-.44-.09-.76-.26-.96-.17-.2-.44-.3-.81-.3-.43 0-.77.13-1.03.4-.25.27-.38.62-.38 1.07V61h-1v-3.62c0-.53-.03-1-.08-1.42h.94l.09.87c.16-.32.39-.56.69-.73.3-.17.65-.26 1.04-.26zm4.13-1.96v.82c0 .31-.05.6-.16.85-.1.25-.28.5-.54.76l-.43-.34c.28-.3.44-.6.48-.89h-.55v-1.2h1.2zm2.7 2.86v2.53c0 .35.08.6.22.74a.9.9 0 00.63.21c.18 0 .35-.03.53-.08v.82c-.22.07-.47.11-.75.11-.52 0-.92-.15-1.2-.44-.3-.3-.44-.72-.44-1.28v-2.61h-.98v-.78h.98V54.7l1.01-.35v1.61H39v.78h-1.4zm12.81-.78L48.48 61h-.92l-1.35-3.65L44.87 61h-.92l-1.92-5.04h1.05l1.37 3.85 1.4-3.85h.8l1.38 3.85 1.38-3.85h1zm5.48 0V61h-1v-.86c-.14.3-.36.53-.66.69-.28.16-.62.24-1 .24-.45 0-.85-.1-1.19-.32-.33-.21-.59-.51-.78-.9-.18-.4-.28-.85-.28-1.37 0-.52.1-.98.28-1.38a2.09 2.09 0 011.96-1.26c.39 0 .73.08 1.01.25.29.16.51.39.66.69v-.82h1zm-2.43 4.31c.46 0 .8-.16 1.05-.47.26-.32.38-.77.38-1.34 0-.58-.12-1.03-.38-1.34-.24-.31-.6-.47-1.06-.47-.45 0-.8.16-1.07.49a2.1 2.1 0 00-.38 1.34c0 .57.13 1 .38 1.32.26.31.62.47 1.08.47zm3.92-4.31h1V61h-1v-5.04zm1.08-2.2v1.06h-1.17v-1.06h1.17zm2.7 2.98v2.53c0 .35.08.6.23.74a.9.9 0 00.63.21c.17 0 .35-.03.53-.08v.82c-.22.07-.47.11-.75.11-.52 0-.93-.15-1.21-.44-.29-.3-.43-.72-.43-1.28v-2.61h-.98v-.78h.98V54.7l1-.35v1.61h1.4v.78h-1.4zm9.7 3.41V61H66.2v-.77l2.45-2.69c.31-.35.54-.66.68-.94.14-.29.22-.57.22-.85 0-.36-.1-.63-.31-.82-.21-.2-.51-.29-.9-.29a3.2 3.2 0 00-1.98.78l-.37-.76a3.76 3.76 0 012.38-.86c.68 0 1.21.17 1.6.51.4.34.6.8.6 1.38 0 .41-.08.8-.26 1.18a5.4 5.4 0 01-.9 1.23l-1.9 2.05h3.36zm8.57-6.51V61h-1v-.86c-.15.3-.37.53-.66.69-.29.16-.63.24-1.01.24-.44 0-.82-.11-1.16-.33-.34-.22-.6-.53-.8-.92-.19-.4-.28-.86-.28-1.38 0-.52.1-.98.28-1.37.18-.4.44-.7.78-.91.34-.21.73-.32 1.18-.32.38 0 .71.08 1 .24.3.16.51.39.66.68v-3.12h1zm-2.44 6.63c.46 0 .81-.16 1.06-.47.25-.32.38-.77.38-1.34 0-.57-.13-1.02-.38-1.33-.25-.32-.6-.48-1.05-.48-.46 0-.82.16-1.08.47-.25.31-.38.75-.38 1.32 0 .57.13 1.02.38 1.35.26.32.62.48 1.07.48zm8.53-4.31V61h-1v-.86c-.14.3-.36.53-.66.69-.28.16-.62.24-1 .24-.45 0-.85-.1-1.19-.32-.33-.21-.6-.51-.78-.9-.18-.4-.28-.85-.28-1.37 0-.52.1-.98.28-1.38a2.09 2.09 0 011.96-1.26c.39 0 .73.08 1.01.25.29.16.5.39.66.69v-.82h1zm-2.43 4.31c.46 0 .8-.16 1.05-.47.26-.32.38-.77.38-1.34 0-.58-.12-1.03-.38-1.34-.24-.31-.6-.47-1.06-.47-.45 0-.8.16-1.07.49a2.1 2.1 0 00-.38 1.34c0 .57.13 1 .38 1.32.26.31.62.47 1.08.47zm8.5-4.31l-2.35 5.45a3 3 0 01-.98 1.3c-.4.28-.87.47-1.44.56l-.22-.78c.47-.1.83-.25 1.07-.42.24-.17.44-.42.59-.76l.18-.42-2.12-4.93h1.07l1.58 3.9 1.6-3.9h1.02zm2.46 5.11c-.88 0-1.57-.21-2.08-.64l.3-.73c.53.4 1.13.6 1.8.6.36 0 .62-.06.8-.17a.57.57 0 00.27-.5.5.5 0 00-.2-.42 1.5 1.5 0 00-.61-.27l-.84-.2c-.44-.1-.78-.26-1.01-.49a1.25 1.25 0 01-.34-.89c0-.45.18-.82.54-1.1.37-.28.85-.42 1.45-.42.36 0 .7.06 1.02.17.33.11.6.27.83.48l-.31.71c-.49-.39-1-.58-1.54-.58-.33 0-.58.06-.76.19a.58.58 0 00-.27.51c0 .17.06.31.17.42.11.1.3.19.54.25l.86.21c.48.1.83.28 1.06.51.23.23.35.52.35.89 0 .45-.18.81-.55 1.08-.36.26-.85.39-1.48.39zm8.02-6.62c-.56 0-.83.32-.83.95v.56h1.18v.78h-1.18V61h-1.01v-4.26h-.97v-.78h.97v-.64c0-.56.14-.99.42-1.28.28-.3.68-.44 1.2-.44.26 0 .5.03.73.1v.83a1.8 1.8 0 00-.51-.08zm3.5 6.62c-.5 0-.93-.1-1.3-.32a2.2 2.2 0 01-.88-.91 3 3 0 01-.3-1.38 3 3 0 01.3-1.38c.2-.4.5-.7.87-.92.38-.21.8-.32 1.3-.32.49 0 .92.1 1.3.32.37.21.65.52.85.92.2.4.31.85.31 1.38 0 .53-.1.99-.3 1.38-.2.4-.5.7-.87.91-.37.21-.8.32-1.29.32zm-.02-.8c.47 0 .83-.15 1.07-.46.25-.3.37-.76.37-1.35 0-.58-.12-1.03-.38-1.34-.24-.31-.6-.47-1.05-.47-.46 0-.81.16-1.07.47-.25.31-.38.76-.38 1.34 0 .6.13 1.04.37 1.35.26.3.61.46 1.07.46zm6.16-4.43c.16 0 .32.02.48.07l-.02.92c-.18-.07-.37-.1-.59-.1-.46 0-.8.14-1.04.42-.22.27-.34.62-.34 1.04V61h-1v-3.62c0-.53-.02-1-.08-1.42h.94l.1.91c.13-.33.33-.59.61-.76.28-.18.6-.27.94-.27zm8.5.12l-2.35 5.45a3 3 0 01-.98 1.3c-.39.28-.87.47-1.44.56l-.22-.78c.47-.1.83-.25 1.07-.42.25-.17.44-.42.59-.76l.18-.42-2.12-4.93H116l1.58 3.9 1.6-3.9h1.02zm2.88 5.11c-.5 0-.92-.1-1.3-.32a2.2 2.2 0 01-.87-.91 3 3 0 01-.3-1.38 3 3 0 01.3-1.38c.2-.4.5-.7.87-.92.38-.21.8-.32 1.3-.32.49 0 .92.1 1.3.32.37.21.65.52.85.92.2.4.31.85.31 1.38 0 .53-.1.99-.3 1.38-.2.4-.5.7-.87.91-.37.21-.8.32-1.29.32zm0-.8c.46 0 .81-.15 1.06-.46.25-.3.37-.76.37-1.35 0-.58-.13-1.03-.38-1.34-.24-.31-.6-.47-1.05-.47-.46 0-.81.16-1.07.47-.25.31-.38.76-.38 1.34 0 .6.13 1.04.37 1.35.25.3.61.46 1.07.46zm8.02-4.31V61h-.98v-.84c-.16.3-.38.52-.66.68-.28.15-.6.23-.95.23-1.21 0-1.82-.67-1.82-2.02v-3.09h1v3.08c0 .41.09.72.25.92.18.2.44.29.78.29.42 0 .75-.13 1-.4s.37-.62.37-1.06v-2.83h1.01zm4-.12c.15 0 .3.02.47.07l-.02.92c-.18-.07-.38-.1-.59-.1-.46 0-.8.14-1.04.42-.22.27-.34.62-.34 1.04V61h-1v-3.62c0-.53-.03-1-.08-1.42h.94l.1.91c.13-.33.33-.59.61-.76.28-.18.6-.27.94-.27zm6.58 0a2.09 2.09 0 011.95 1.26c.2.4.29.86.29 1.38 0 .52-.1.98-.28 1.37a2.13 2.13 0 01-1.96 1.22 2.1 2.1 0 01-1.02-.24 1.6 1.6 0 01-.65-.71v3.04h-1v-5.78c0-.53-.03-1-.08-1.42h.94l.1.93c.13-.33.35-.59.65-.77.3-.19.65-.28 1.06-.28zm-.23 4.43c.45 0 .8-.16 1.06-.47.25-.31.38-.75.38-1.32 0-.57-.13-1.02-.38-1.34-.26-.33-.6-.49-1.06-.49-.47 0-.83.16-1.07.47-.25.31-.37.76-.37 1.34 0 .58.12 1.03.37 1.34.25.31.6.47 1.07.47zm8.26-4.31V61h-1v-.86c-.15.3-.37.53-.66.69-.29.16-.62.24-1 .24-.46 0-.85-.1-1.19-.32-.33-.21-.6-.51-.78-.9-.19-.4-.28-.85-.28-1.37 0-.52.1-.98.28-1.38a2.09 2.09 0 011.96-1.26c.39 0 .72.08 1.01.25.29.16.5.39.66.69v-.82h1zm-2.43 4.31c.46 0 .8-.16 1.05-.47.25-.32.38-.77.38-1.34 0-.58-.13-1.03-.38-1.34-.25-.31-.6-.47-1.06-.47-.45 0-.8.16-1.07.49-.25.32-.38.77-.38 1.34 0 .57.13 1 .38 1.32.26.31.62.47 1.08.47zm8.5-4.31l-2.35 5.45a3 3 0 01-.99 1.3c-.38.28-.86.47-1.44.56l-.22-.78c.48-.1.84-.25 1.07-.42.25-.17.45-.42.6-.76l.18-.42-2.13-4.93h1.07l1.59 3.9 1.6-3.9h1.02zm6.53-.12c1.12 0 1.68.67 1.68 2.02V61h-1.01v-3.09c0-.43-.08-.75-.23-.95-.15-.2-.39-.3-.72-.3-.39 0-.7.13-.92.4-.22.27-.33.63-.33 1.09V61h-1.01v-3.09c0-.43-.08-.75-.23-.95-.15-.2-.39-.3-.72-.3-.39 0-.7.13-.92.4-.23.27-.34.63-.34 1.09V61h-1v-3.62c0-.53-.03-1-.08-1.42h.94l.09.84c.14-.3.35-.54.63-.71.27-.17.59-.25.96-.25.78 0 1.29.32 1.53.97.15-.3.37-.54.67-.71.3-.17.63-.26 1-.26zm7.42 2.66h-3.6c.04 1.18.57 1.77 1.61 1.77a2.5 2.5 0 001.6-.57l.3.72c-.22.2-.51.36-.87.48-.34.11-.7.17-1.05.17-.8 0-1.44-.23-1.9-.69a2.6 2.6 0 01-.69-1.91c0-.51.1-.97.3-1.37a2.28 2.28 0 012.11-1.26c.68 0 1.22.22 1.6.66.4.44.6 1.05.6 1.83v.17zm-2.17-1.91c-.38 0-.69.11-.93.34-.24.23-.39.55-.46.97h2.67a1.53 1.53 0 00-.39-.97 1.18 1.18 0 00-.89-.34zm6.01-.75c1.2 0 1.81.67 1.81 2.02V61h-1v-3.08c0-.44-.1-.76-.27-.96-.16-.2-.43-.3-.8-.3-.43 0-.78.13-1.04.4a1.5 1.5 0 00-.38 1.07V61h-1v-3.62c0-.53-.02-1-.08-1.42h.94l.1.87c.15-.32.38-.56.68-.73.3-.17.66-.26 1.04-.26zm4.56.9v2.53c0 .35.07.6.22.74a.9.9 0 00.63.21c.17 0 .35-.03.53-.08v.82c-.22.07-.47.11-.75.11-.52 0-.92-.15-1.21-.44-.29-.3-.43-.72-.43-1.28v-2.61h-.98v-.78h.98V54.7l1.01-.35v1.61h1.39v.78h-1.39zm4.08 4.33c-.88 0-1.57-.21-2.08-.64l.3-.73c.53.4 1.13.6 1.81.6.35 0 .61-.06.8-.17a.57.57 0 00.26-.5.5.5 0 00-.19-.42 1.5 1.5 0 00-.62-.27l-.84-.2c-.44-.1-.77-.26-1-.49a1.25 1.25 0 01-.35-.89c0-.45.18-.82.54-1.1.37-.28.85-.42 1.45-.42.36 0 .7.06 1.02.17.33.11.6.27.83.48l-.3.71c-.5-.39-1-.58-1.55-.58-.32 0-.58.06-.76.19a.58.58 0 00-.27.51c0 .17.06.31.17.42.12.1.3.19.54.25l.86.21c.48.1.84.28 1.06.51.24.23.35.52.35.89 0 .45-.18.81-.55 1.08-.36.26-.85.39-1.48.39z" fill="#fff"/><defs><linearGradient id="paint0_linear" x1="-25" y1="91" x2="377.5" y2="23.5" gradientUnits="userSpaceOnUse"><stop stop-color="#071E72"/><stop offset="1" stop-color="#FF7A2F"/></linearGradient><linearGradient id="paint1_linear" x1="54" y1="101.5" x2="348" y2="12" gradientUnits="userSpaceOnUse"><stop stop-color="#071E72"/><stop offset="1" stop-color="#FF8946"/></linearGradient><linearGradient id="paint2_linear" x1="284" y1="62" x2="275.5" y2="79" gradientUnits="userSpaceOnUse"><stop/><stop offset="1" stop-color="#614563" stop-opacity="0"/></linearGradient><linearGradient id="paint3_linear" x1="365.5" y1="58.5" x2="277.5" y2="1.5" gradientUnits="userSpaceOnUse"><stop stop-color="#fff"/><stop offset="1" stop-color="#FF8946"/></linearGradient><linearGradient id="paint4_linear" x1="238.5" y1="48.5" x2="230" y2="65.5" gradientUnits="userSpaceOnUse"><stop/><stop offset="1" stop-color="#614563" stop-opacity="0"/></linearGradient><linearGradient id="paint5_linear" x1="256" y1="56" x2="247.5" y2="73" gradientUnits="userSpaceOnUse"><stop/><stop offset="1" stop-color="#614563" stop-opacity="0"/></linearGradient><linearGradient id="paint6_linear" x1="167.46" y1="30.09" x2="273.25" y2="80.68" gradientUnits="userSpaceOnUse"><stop stop-color="#8DEA11"/><stop offset="1" stop-color="#00A3FF"/></linearGradient><linearGradient id="paint7_linear" x1="235.89" y1="116.23" x2="269.84" y2="48.65" gradientUnits="userSpaceOnUse"><stop stop-color="#11EA40"/><stop offset="1" stop-color="#00A3FF"/></linearGradient><linearGradient id="paint8_linear" x1="266.74" y1="90.88" x2="282.86" y2="68.31" gradientUnits="userSpaceOnUse"><stop stop-color="#11EA40"/><stop offset="1" stop-color="#00A3FF"/></linearGradient><linearGradient id="paint9_linear" x1="224.89" y1="41.08" x2="264.81" y2="70.28" gradientUnits="userSpaceOnUse"><stop stop-color="#11EA40"/><stop offset="1" stop-color="#9DFFC4"/></linearGradient><linearGradient id="paint10_linear" x1="269.19" y1="63.69" x2="268.1" y2="44.46" gradientUnits="userSpaceOnUse"><stop stop-color="#11EA40"/><stop offset="1" stop-color="#00A3FF"/></linearGradient><linearGradient id="paint11_linear" x1="238.33" y1="71.94" x2="257.97" y2="48.3" gradientUnits="userSpaceOnUse"><stop stop-color="#11EA40"/><stop offset="1" stop-color="#00A3FF"/></linearGradient><linearGradient id="paint12_linear" x1="299.72" y1="13.86" x2="316.92" y2="40.13" gradientUnits="userSpaceOnUse"><stop stop-color="#fff"/><stop offset="1" stop-color="#CCDAFF"/></linearGradient><linearGradient id="paint13_linear" x1="314.53" y1="15.77" x2="305.93" y2="14.81" gradientUnits="userSpaceOnUse"><stop stop-color="#A2FEC7"/><stop offset="1" stop-color="#A9FEA2" stop-opacity="0"/></linearGradient><linearGradient id="paint14_linear" x1="305" y1="70" x2="298" y2="76" gradientUnits="userSpaceOnUse"><stop stop-opacity=".47"/><stop offset="1" stop-color="#282D6D" stop-opacity="0"/></linearGradient><linearGradient id="paint15_linear" x1="453" y1="21.5" x2="279.84" y2="104.31" gradientUnits="userSpaceOnUse"><stop stop-color="#8DEA11"/><stop offset="1" stop-color="#00A3FF"/></linearGradient><linearGradient id="paint16_linear" x1="341" y1="162.5" x2="285.44" y2="51.89" gradientUnits="userSpaceOnUse"><stop stop-color="#11EA40"/><stop offset="1" stop-color="#00A3FF"/></linearGradient><linearGradient id="paint17_linear" x1="290.5" y1="121" x2="264.12" y2="84.06" gradientUnits="userSpaceOnUse"><stop stop-color="#11EA40"/><stop offset="1" stop-color="#00A3FF"/></linearGradient><linearGradient id="paint18_linear" x1="359" y1="39.5" x2="293.67" y2="87.29" gradientUnits="userSpaceOnUse"><stop stop-color="#11EA40"/><stop offset="1" stop-color="#9DFFC4"/></linearGradient><linearGradient id="paint19_linear" x1="286.5" y1="76.5" x2="288.27" y2="45.02" gradientUnits="userSpaceOnUse"><stop stop-color="#11EA40"/><stop offset="1" stop-color="#00A3FF"/></linearGradient><linearGradient id="paint20_linear" x1="337" y1="90" x2="304.85" y2="51.31" gradientUnits="userSpaceOnUse"><stop stop-color="#11EA40"/><stop offset="1" stop-color="#00A3FF"/></linearGradient><linearGradient id="paint21_linear" x1="273" y1="52" x2="264.5" y2="69" gradientUnits="userSpaceOnUse"><stop/><stop offset="1" stop-color="#614563" stop-opacity="0"/></linearGradient><linearGradient id="paint22_linear" x1="259.38" y1="67.25" x2="246.21" y2="63.79" gradientUnits="userSpaceOnUse"><stop stop-color="#FFC71E"/><stop offset="1" stop-color="#F2E900"/></linearGradient><linearGradient id="paint23_linear" x1="259.38" y1="63.25" x2="246.21" y2="59.79" gradientUnits="userSpaceOnUse"><stop stop-color="#FFC71E"/><stop offset="1" stop-color="#F2E900"/></linearGradient><linearGradient id="paint24_linear" x1="259.38" y1="59.25" x2="246.21" y2="55.79" gradientUnits="userSpaceOnUse"><stop stop-color="#FFC71E"/><stop offset="1" stop-color="#F2E900"/></linearGradient><linearGradient id="paint25_linear" x1="257.32" y1="28.5" x2="257.84" y2="15" gradientUnits="userSpaceOnUse"><stop stop-color="#FEC71B"/><stop offset="1" stop-color="#fff" stop-opacity="0"/></linearGradient><linearGradient id="paint26_linear" x1="263.05" y1="32.32" x2="251.66" y2="24.29" gradientUnits="userSpaceOnUse"><stop stop-color="#FFC71E"/><stop offset="1" stop-color="#F2E900"/></linearGradient><linearGradient id="paint27_linear" x1="251.5" y1="41.5" x2="252" y2="28" gradientUnits="userSpaceOnUse"><stop stop-color="#FEC71B"/><stop offset="1" stop-color="#fff" stop-opacity="0"/></linearGradient><linearGradient id="paint28_linear" x1="259.27" y1="45.29" x2="245.65" y2="45.25" gradientUnits="userSpaceOnUse"><stop stop-color="#FFC000"/><stop offset="1" stop-color="#EDF200"/></linearGradient><linearGradient id="paint29_linear" x1="289.5" y1="51.5" x2="290" y2="38" gradientUnits="userSpaceOnUse"><stop stop-color="#FEC71B"/><stop offset="1" stop-color="#fff" stop-opacity="0"/></linearGradient><linearGradient id="paint30_linear" x1="292.61" y1="59.63" x2="283.38" y2="49.62" gradientUnits="userSpaceOnUse"><stop stop-color="#FFC71E"/><stop offset="1" stop-color="#F2E900"/></linearGradient><linearGradient id="paint31_linear" x1="293.38" y1="72.25" x2="280.21" y2="68.79" gradientUnits="userSpaceOnUse"><stop stop-color="#FFC71E"/><stop offset="1" stop-color="#F2E900"/></linearGradient><linearGradient id="paint32_linear" x1="293.38" y1="68.25" x2="280.21" y2="64.79" gradientUnits="userSpaceOnUse"><stop stop-color="#FFC71E"/><stop offset="1" stop-color="#F2E900"/></linearGradient><linearGradient id="paint33_linear" x1="280.38" y1="63.25" x2="267.21" y2="59.79" gradientUnits="userSpaceOnUse"><stop stop-color="#FFC71E"/><stop offset="1" stop-color="#F2E900"/></linearGradient><linearGradient id="paint34_linear" x1="261.37" y1="67.77" x2="261.23" y2="54.15" gradientUnits="userSpaceOnUse"><stop stop-color="#FFC71E"/><stop offset="1" stop-color="#F2E900"/></linearGradient><linearGradient id="paint35_linear" x1="-43.5" y1="-7.5" x2="111.5" y2="23" gradientUnits="userSpaceOnUse"><stop stop-color="#00E031"/><stop offset="1" stop-color="#00C0EA"/></linearGradient><filter id="filter0_f" x="233.22" y="46.05" width="29.16" height="24.89" filterUnits="userSpaceOnUse" color-interpolation-filters="sRGB"><feFlood flood-opacity="0" result="BackgroundImageFix"/><feBlend in="SourceGraphic" in2="BackgroundImageFix" result="shape"/><feGaussianBlur stdDeviation="5" result="effect1_foregroundBlur"/></filter><filter id="filter1_f" x="278" y="34" width="55" height="21" filterUnits="userSpaceOnUse" color-interpolation-filters="sRGB"><feFlood flood-opacity="0" result="BackgroundImageFix"/><feBlend in="SourceGraphic" in2="BackgroundImageFix" result="shape"/><feGaussianBlur stdDeviation="5" result="effect1_foregroundBlur"/></filter><filter id="filter2_f" x="304" y="54" width="35" height="28" filterUnits="userSpaceOnUse" color-interpolation-filters="sRGB"><feFlood flood-opacity="0" result="BackgroundImageFix"/><feBlend in="SourceGraphic" in2="BackgroundImageFix" result="shape"/><feGaussianBlur stdDeviation="5" result="effect1_foregroundBlur"/></filter><filter id="filter3_f" x="322" y="47" width="15" height="7" filterUnits="userSpaceOnUse" color-interpolation-filters="sRGB"><feFlood flood-opacity="0" result="BackgroundImageFix"/><feBlend in="SourceGraphic" in2="BackgroundImageFix" result="shape"/><feGaussianBlur stdDeviation="1.5" result="effect1_foregroundBlur"/></filter></defs></svg>